# xmcd CD database file
#
# Track frame offsets:
#	150
#	14831
#	28745
#	44614
#	62028
#	79286
#	98173
#	113176
#	135773
#	154236
#	171923
#	192871
#
# Disc length: 2813 seconds
#
# Revision: 4
# Processed by: cddbd v1.5.2PL0 Copyright (c) Steve Scherf et al.
# Submitted via: CDex 1.51
#
DISCID=a10afb0c
DTITLE=Ana Belén - Lorquiana
DYEAR=1998
DGENRE=Latin
TTITLE0=Los cuatro muleros
TTITLE1=Zorongo gitano
TTITLE2=La Tarara
TTITLE3=Anda jaleo
TTITLE4=Las tres hojas
TTITLE5=Sevillanas del siglo XVIII
TTITLE6=Los pelegrinitos
TTITLE7=Los mozos de Monleón
TTITLE8=Romance de don Boyso
TTITLE9=Las morillas de Jaén
TTITLE10=En el Café de Chinitas
TTITLE11=Nana de Sevilla
EXTD=YEAR: 1998
EXTT0=Renaud SECHAN.
EXTT1=Renaud SECHAN-Franck LANGOLFF.
EXTT2=Renaud SECHAN.
EXTT3=Renaud SECHAN-Luc BERTIN.
EXTT4=Renaud SECHAN.
EXTT5=Renaud SECHAN-Franck LANGOLFF.
EXTT6=Renaud SECHAN-Franck LANGOLFF.
EXTT7=Renaud SECHAN.
EXTT8=Renaud SECHAN.
EXTT9=Renaud SECHAN.
EXTT10=Renaud SECHAN-Pierre-Jean GIDON.
EXTT11=Renaud SECHAN.
PLAYORDER=
